<svg width="39" height="40" viewBox="0 0 39 40" fill="none" xmlns="http://www.w3.org/2000/svg">
<rect y="1" width="39" height="39" rx="4" fill="black"/>
<path d="M17.1845 35V15.3636H21.8123V35H17.1845ZM19.5112 12.5767C18.7782 12.5767 18.1475 12.3338 17.6191 11.848C17.0907 11.3537 16.8265 10.7614 16.8265 10.071C16.8265 9.37216 17.0907 8.77983 17.6191 8.29403C18.1475 7.79971 18.7782 7.55256 19.5112 7.55256C20.2527 7.55256 20.8833 7.79971 21.4032 8.29403C21.9316 8.77983 22.1958 9.37216 22.1958 10.071C22.1958 10.7614 21.9316 11.3537 21.4032 11.848C20.8833 12.3338 20.2527 12.5767 19.5112 12.5767Z" fill="white"/>
</svg>
